<?xml version="1.0" encoding="utf-8"?>
<!-- Generator: Adobe Illustrator 15.1.0, SVG Export Plug-In  -->
<!DOCTYPE svg PUBLIC "-//W3C//DTD SVG 1.1//EN" "http://www.w3.org/Graphics/SVG/1.1/DTD/svg11.dtd" [
	<!ENTITY ns_flows "http://ns.adobe.com/Flows/1.0/">
]>
<svg version="1.1"
	 xmlns="http://www.w3.org/2000/svg" xmlns:xlink="http://www.w3.org/1999/xlink" xmlns:a="http://ns.adobe.com/AdobeSVGViewerExtensions/3.0/"
	 x="0px" y="0px" width="383px" height="383px" viewBox="-5.832 -3.5 383 383"
	 overflow="visible" enable-background="new -5.832 -3.5 383 383" xml:space="preserve">
<defs>
</defs>
<path fill="#FFFFFF" d="M257.004,310.062V192.785h30.172c40.574,0,65.016,22.941,65.016,58.637
	c0,35.699-24.441,58.641-65.016,58.641H257.004z M239.793,325.785h49.293c47.805,0,80.734-30.164,80.734-74.363
	c0-44.191-32.93-74.355-80.734-74.355h-49.293V325.785z"/>
<path fill="#FFFFFF" d="M256.824,177.035V59.758H287c40.574,0,65.008,22.941,65.008,58.637c0,35.699-24.434,58.641-65.008,58.641
	H256.824z M239.617,192.758h49.285c47.809,0,80.742-30.168,80.742-74.363c0-44.191-32.934-74.359-80.742-74.359h-49.285V192.758z"/>
<path fill="#FFFFFF" d="M112.82,310.062V192.785H82.652c-40.582,0-65.016,22.941-65.016,58.637
	c0,35.699,24.434,58.641,65.016,58.641H112.82z M130.031,325.785H80.738C32.938,325.785,0,295.621,0,251.422
	c0-44.191,32.938-74.355,80.738-74.355h49.293V325.785z"/>
<path fill="#FFFFFF" d="M112.996,177.035V59.758H82.828c-40.578,0-65.016,22.941-65.016,58.637
	c0,35.699,24.438,58.641,65.016,58.641H112.996z M130.207,192.758H80.918c-47.805,0-80.738-30.168-80.738-74.363
	c0-44.191,32.934-74.359,80.738-74.359h49.289V192.758z"/>
<path fill="#FFFFFF" d="M310.066,112.816H192.785V82.652c0-40.582,22.945-65.02,58.637-65.02c35.695,0,58.645,24.438,58.645,65.02
	V112.816z M325.789,130.031V80.738C325.789,32.934,295.621,0,251.422,0c-44.188,0-74.355,32.934-74.355,80.738v49.293H325.789z"/>
<path fill="#FFFFFF" d="M177.035,113H59.754V82.828c0-40.582,22.949-65.016,58.641-65.016c35.695,0,58.641,24.434,58.641,65.016V113
	z M192.762,130.207V80.918c0-47.809-30.168-80.742-74.367-80.742c-44.188,0-74.355,32.934-74.355,80.742v49.289H192.762z"/>
<path fill="#FFFFFF" d="M310.066,257.004H192.785v30.168c0,40.582,22.945,65.016,58.637,65.016
	c35.695,0,58.645-24.434,58.645-65.016V257.004z M325.789,239.789v49.293c0,47.805-30.168,80.742-74.367,80.742
	c-44.188,0-74.355-32.938-74.355-80.742v-49.293H325.789z"/>
<path fill="#FFFFFF" d="M177.035,256.828H59.754v30.168c0,40.578,22.949,65.016,58.641,65.016c35.695,0,58.641-24.438,58.641-65.016
	V256.828z M192.762,239.613v49.293c0,47.805-30.168,80.738-74.367,80.738c-44.188,0-74.355-32.934-74.355-80.738v-49.293H192.762z"
	/>
</svg>
